<?xml version="1.0" encoding="UTF-8"?>
<svg version="1.1" xmlns="http://www.w3.org/2000/svg" width="800" height="800">
<path d="M0 0 C264 0 528 0 800 0 C800 264 800 528 800 800 C536 800 272 800 0 800 C0 536 0 272 0 0 Z " fill="#006FCE" transform="translate(0,0)"/>
<path d="M0 0 C40.92 0 81.84 0 124 0 C134.40996852 23.22223746 144.74565031 46.46817026 154.875 69.8125 C155.14626709 70.43712128 155.41753418 71.06174255 155.69702148 71.70529175 C156.48389777 73.51794318 157.26930617 75.33123159 158.0546875 77.14453125 C158.50312012 78.17940674 158.95155273 79.21428223 159.41357422 80.28051758 C161.64243463 85.50623139 163.81492747 90.75582593 166 96 C166.33 64.32 166.66 32.64 167 0 C217.16 0 267.32 0 319 0 C337 50 337 50 344 70 C344.33 70.66 344.66 71.32 345 72 C346.48157308 67.87586051 347.96019827 63.75067144 349.4375 59.625 C349.77438339 58.6844577 349.77438339 58.6844577 350.11807251 57.72491455 C353.7250757 47.64758234 357.26057642 37.54773694 360.69116211 27.40869141 C363.86010242 18.14209288 367.43802332 9.15936861 371 0 C409.28 0 447.56 0 487 0 C487 178.86 487 357.72 487 542 C455.65 542 424.3 542 392 542 C389.69 539.36 387.38 536.72 385 534 C383.00790557 531.82495812 381.01085957 529.65737028 379 527.5 C375.21262044 523.41800101 371.48229355 519.30226124 367.83984375 515.08984375 C364.96598095 511.8254773 362.00876328 508.63761012 359.06201172 505.43920898 C355.79197025 501.88316632 352.59373134 498.27416708 349.4375 494.6171875 C348.20542425 493.23110228 346.8907618 491.9192038 345.5625 490.625 C344 489 344 489 344 487 C340.08292867 489.84877915 337.07153115 493.0803532 333.9453125 496.734375 C331.87331097 499.14754947 329.75601156 501.51380949 327.625 503.875 C326.86703125 504.71546875 326.1090625 505.5559375 325.328125 506.421875 C323.77604167 508.140625 322.22395833 509.859375 320.671875 511.578125 C317.29614978 515.32127609 313.92862565 519.06796472 310.625 522.875 C307.07939401 526.95453254 303.41432089 530.92144827 299.73095703 534.87646484 C297.60416279 537.17539579 295.74240597 539.38639104 294 542 C291.71898973 542.37259549 291.71898973 542.37259549 288.80319786 542.36914349 C287.69497937 542.37511663 286.58676087 542.38108978 285.44496 542.38724393 C284.21735507 542.3785054 282.98975014 542.36976688 281.72494507 542.36076355 C280.42875012 542.36332682 279.13255517 542.3658901 277.79708159 542.36853105 C274.18720176 542.37526502 270.57758704 542.36320372 266.96774101 542.34819686 C263.07953248 542.33528245 259.19133978 542.33962269 255.30311584 542.34190369 C248.56251843 542.34347934 241.8220079 542.3340397 235.08143234 542.31719017 C225.33561784 542.29284421 215.58984549 542.28499942 205.84400387 542.2812262 C190.03334853 542.27465478 174.22273954 542.25467494 158.41210938 542.22631836 C143.05045806 542.19879562 127.68881937 542.1775877 112.32714844 542.16479492 C111.37113597 542.16399093 110.41512351 542.16318694 109.43014097 542.16235858 C101.95387386 542.15612058 94.47760646 542.15024972 87.00133896 542.14449489 C50.33418344 542.11617642 13.66714388 542.0558257 -23 542 C-23 457.85 -23 373.7 -23 287 C-56.99 287 -90.98 287 -126 287 C-122.7 279.41 -119.4 271.82 -116 264 C-113.73179634 258.74988717 -113.73179634 258.74988717 -111.46533203 253.49902344 C-103.19127693 234.33593166 -94.73552796 215.25346651 -86.28662109 196.16699219 C-82.99864975 188.73850426 -79.71690231 181.30727417 -76.4375 173.875 C-76.13989777 173.20067932 -75.84229553 172.52635864 -75.53567505 171.831604 C-71.89182641 163.57421346 -68.2575751 155.31266212 -64.6328125 147.046875 C-64.25945267 146.19549957 -63.88609283 145.34412415 -63.50141907 144.46694946 C-62.73891163 142.72814955 -61.97640451 140.9893495 -61.21389771 139.25054932 C-60.83393646 138.38411804 -60.45397522 137.51768677 -60.0625 136.625 C-59.49267899 135.32559479 -59.49267899 135.32559479 -58.91134644 133.99993896 C-53.64119947 121.98485989 -48.3380157 109.98507023 -43 98 C-37.3196858 85.24422843 -31.67551061 72.47303602 -26.0625 59.6875 C-25.56568726 58.55646851 -25.56568726 58.55646851 -25.05883789 57.40258789 C-16.66408013 38.28666282 -8.34253573 19.13875843 0 0 Z " fill="#FCFEFE" transform="translate(313,132)"/>
<path d="M0 0 C67.48330951 -0.56463889 67.48330951 -0.56463889 95.69726562 -0.68359375 C102.15470881 -0.71100206 108.61214725 -0.73928826 115.06958008 -0.76904297 C115.87886272 -0.77273545 116.68814537 -0.77642793 117.52195174 -0.78023231 C130.57052141 -0.84104739 143.61822332 -0.95137655 156.66627922 -1.08013915 C170.0671049 -1.21127548 183.46747778 -1.28886741 196.86891872 -1.31723893 C205.13233165 -1.33640624 213.39329275 -1.39682842 221.6559504 -1.51083054 C227.32973487 -1.58510345 233.00226075 -1.6071434 238.67649551 -1.58901928 C241.94676449 -1.58008861 245.21189364 -1.60106631 248.48159218 -1.66887665 C269.0941704 -2.07526679 269.0941704 -2.07526679 275.38349342 3.07857895 C278.27496521 5.92764265 280.6754874 8.99914035 282.91292632 12.37987304 C284.30942922 14.46115975 285.92861783 16.28420439 287.625 18.125 C288.14707031 18.72957031 288.66914062 19.33414062 289.20703125 19.95703125 C291.53657293 22.6113892 293.92270518 25.21254116 296.3125 27.8125 C296.78155762 28.32280762 297.25061523 28.83311523 297.73388672 29.35888672 C298.6859783 30.39442077 299.63812689 31.4299024 300.59033203 32.46533203 C310.61145664 43.37506346 310.61145664 43.37506346 315.375 48.875 C319.11451973 53.18845082 323.01038892 57.35593194 326.91357422 61.52099609 C329.16074655 63.93360442 331.16666484 66.24999726 333 69 C335.09431517 69.23471676 335.09431517 69.23471676 336.41015625 67.6015625 C336.95542969 66.94929688 337.50070312 66.29703125 338.0625 65.625 C344.68994865 57.83842967 351.61043931 50.32275615 358.55517578 42.81982422 C362.31171872 38.75730769 366.02259877 34.65626454 369.71484375 30.53515625 C372.33273258 27.63086591 374.97762842 24.75238249 377.625 21.875 C381.82156705 17.30931384 385.93848916 12.68635866 390 8 C393.465 4.04 393.465 4.04 397 0 C423.07 0 449.14 0 476 0 C476 73.59 476 147.18 476 223 C449.93 223 423.86 223 397 223 C376.36585366 200.64634146 376.36585366 200.64634146 367.30078125 190.55078125 C361.38930205 183.99696815 355.40097995 177.51284868 349.40844727 171.03320312 C343.88961051 165.06537329 338.41739515 159.06036882 333 153 C329.89587239 154.35428461 328.08524276 155.77134253 325.9375 158.375 C322.87509346 161.99720129 319.71842082 165.5165199 316.5 169 C313.46051603 172.29971901 310.43842431 175.60951041 307.5 179 C304.09255081 182.93167214 300.56870327 186.75361244 297.04467773 190.58032227 C294.51259884 193.33473428 292.00964732 196.10742499 289.5625 198.9375 C285.95239653 203.1056871 282.19940796 207.13858007 278.43774414 211.16967773 C277.95168701 211.69247314 277.46562988 212.21526855 276.96484375 212.75390625 C276.26295423 213.49339631 276.26295423 213.49339631 275.54688513 214.24782556 C273.97538936 215.94996165 273.97538936 215.94996165 272.78102148 217.81865746 C270.75087627 220.71163193 269.17319382 222.67391561 265.69290471 223.64124763 C262.80861918 223.88384598 259.99826162 223.89933614 257.10415649 223.84178162 C255.45487862 223.85075308 255.45487862 223.85075308 253.772282 223.85990578 C250.08647177 223.87143991 246.40288999 223.8329306 242.71728516 223.79467773 C240.07598852 223.79270329 237.43482853 223.79350302 234.79354858 223.79777527 C229.10650168 223.80144284 223.42001765 223.77951223 217.73311234 223.7401104 C209.51094024 223.68318005 201.28903986 223.66498623 193.06669204 223.65619446 C179.72611051 223.64088035 166.38582888 223.59431318 153.04541016 223.52807617 C140.08774287 223.46380654 127.1301575 223.41434602 114.17236328 223.38452148 C113.36528046 223.3826455 112.55819763 223.38076952 111.72665775 223.37883669 C105.41458241 223.36428043 99.10250528 223.35058206 92.79042745 223.33715475 C61.86000969 223.27113864 30.9303428 223.13030705 0 223 C0 149.41 0 75.82 0 0 Z " fill="#026FCE" transform="translate(324,419)"/>
<path d="M0 0 C0.73511307 0.00359528 1.47022614 0.00719055 2.22761536 0.01089478 C2.99829346 0.01074875 3.76897156 0.01060272 4.56300354 0.01045227 C7.12237823 0.01115157 9.68168104 0.01894471 12.24104309 0.02676392 C14.01081299 0.02862804 15.7805834 0.03005197 17.550354 0.03105164 C22.2176505 0.03487728 26.88491607 0.04470796 31.55220032 0.05575562 C36.31110719 0.06596873 41.07001905 0.07054904 45.82893372 0.07559204 C55.17334837 0.08633019 64.51774004 0.10340717 73.86213684 0.12442017 C74.14593704 0.76980743 74.42973724 1.4151947 74.72213745 2.08013916 C81.235946 16.89189046 87.75907037 31.69946546 94.29963684 46.49942017 C94.70733307 47.42219757 95.1150293 48.34497498 95.53507996 49.29571533 C100.40046223 60.30760299 105.27598977 71.31478565 110.17463684 82.31192017 C114.29577215 91.56637455 118.3706354 100.84042989 122.42463684 110.12442017 C134.44751612 137.65492317 146.57942846 165.1382211 158.90510559 192.53457642 C162.57884325 200.72162455 166.21764419 208.9243117 169.86213684 217.12442017 C170.19213684 145.51442017 170.52213684 73.90442017 170.86213684 0.12442017 C202.87213684 0.12442017 234.88213684 0.12442017 267.86213684 0.12442017 C269.84213684 6.55942017 269.84213684 6.55942017 271.86213684 13.12442017 C272.89817429 16.03591228 273.94982027 18.92581764 275.04963684 21.81192017 C277.8131871 29.19013453 280.432273 36.60903543 282.98713684 44.06192017 C286.81493629 55.20102346 290.78338781 66.28473006 294.7966156 77.35791016 C299.62615485 90.68367056 304.41150109 104.0247798 309.17463684 117.37442017 C309.51118286 118.31753052 309.84772888 119.26064087 310.19447327 120.23233032 C312.08457013 125.5293816 313.97376944 130.82675211 315.86213684 136.12442017 C320.30432212 126.06215743 323.9185839 115.72931946 327.56303406 105.35894775 C329.33852673 100.30795853 331.12487308 95.26082123 332.91291809 90.21426392 C333.26040604 89.23338303 333.60789398 88.25250214 333.96591187 87.24189758 C336.49860478 80.10926953 339.10472491 73.01005611 341.79963684 65.93692017 C345.28552911 56.78696668 348.51574779 47.56175467 351.688797 38.29898071 C354.19334519 31.00208655 356.82960062 23.77266781 359.58088684 16.56582642 C361.21445724 12.17809616 362.67777651 7.74458777 364.10041809 3.28457642 C364.86213684 1.12442017 364.86213684 1.12442017 365.86213684 0.12442017 C396.22213684 0.12442017 426.58213684 0.12442017 457.86213684 0.12442017 C457.86213684 74.04442017 457.86213684 147.96442017 457.86213684 224.12442017 C438.39213684 224.12442017 418.92213684 224.12442017 398.86213684 224.12442017 C398.36713684 149.87442017 398.36713684 149.87442017 397.86213684 74.12442017 C391.26213684 92.27442017 384.66213684 110.42442017 377.86213684 129.12442017 C369.61213684 151.12442017 369.61213684 151.12442017 365.98323059 160.74942017 C363.13137357 168.35437222 360.41910227 175.99797739 357.80256653 183.68716431 C353.14642165 197.28121628 347.93823188 210.68430488 342.86213684 224.12442017 C325.04213684 224.12442017 307.22213684 224.12442017 288.86213684 224.12442017 C285.70281695 216.54205243 282.62441678 209.0028817 279.78010559 201.30801392 C279.40906708 200.31020401 279.03802856 199.3123941 278.65574646 198.28434753 C277.45151079 195.04435035 276.25056555 191.80314437 275.04963684 188.56192017 C274.20115457 186.27732881 273.35243697 183.99282484 272.50349426 181.70840454 C270.77911828 177.06739176 269.05594636 172.42593485 267.33381653 167.78408813 C264.51794204 160.19513594 261.69479529 152.60889991 258.87043762 145.02310181 C255.53292945 136.05739857 252.19784159 127.09079453 248.86213684 118.12442017 C243.58213684 103.93442017 238.30213684 89.74442017 232.86213684 75.12442017 C232.53213684 124.29442017 232.20213684 173.46442017 231.86213684 224.12442017 C188.96213684 224.12442017 146.06213684 224.12442017 101.86213684 224.12442017 C87.86213684 190.12442017 87.86213684 190.12442017 83.86213684 180.12442017 C50.20213684 179.79442017 16.54213684 179.46442017 -18.13786316 179.12442017 C-19.12786316 182.09442017 -20.11786316 185.06442017 -21.13786316 188.12442017 C-22.0495644 190.46017577 -22.98615135 192.78640949 -23.95036316 195.10098267 C-24.20535583 195.71533173 -24.46034851 196.32968079 -24.72306824 196.96264648 C-25.52506913 198.89280633 -26.33141107 200.82111655 -27.13786316 202.74942017 C-27.67720569 204.04617873 -28.21626995 205.34305307 -28.75505066 206.64004517 C-31.18498349 212.48198079 -33.64539561 218.30866255 -36.13786316 224.12442017 C-58.57786316 224.12442017 -81.01786316 224.12442017 -104.13786316 224.12442017 C-102.1597355 218.19003718 -100.16548016 212.64478022 -97.57536316 207.00723267 C-97.23175751 206.24910782 -96.88815186 205.49098297 -96.53413391 204.70988464 C-95.79291776 203.07527797 -95.04978899 201.44153746 -94.30491638 199.80859375 C-92.27848351 195.36492882 -90.26745008 190.91429739 -88.25505066 186.46426392 C-87.62601334 185.07450096 -87.62601334 185.07450096 -86.98426819 183.65666199 C-82.34853112 173.40243369 -77.80200297 163.10918453 -73.26286316 152.81192017 C-72.45186709 150.97327988 -71.6408322 149.13465671 -70.82975769 147.29605103 C-69.65888733 144.64158788 -68.48810663 141.98708541 -67.31764221 139.33244324 C-59.92770017 122.57322997 -52.46437304 105.8468981 -44.98106384 89.12921143 C-38.93964533 75.6322352 -32.90060493 62.13420157 -26.88786316 48.62442017 C-26.56014923 47.88824463 -26.2324353 47.15206909 -25.89479065 46.39358521 C-20.5214113 34.3149305 -15.23825349 22.1985205 -10.03337097 10.04629517 C-9.53289246 8.88227173 -9.03241394 7.71824829 -8.51676941 6.51895142 C-8.07921326 5.49648315 -7.6416571 4.47401489 -7.19084167 3.42056274 C-5.40621018 -0.47103457 -4.15298517 0.00857082 0 0 Z " fill="#016FCE" transform="translate(342.1378631591797,162.87557983398438)"/>
<path d="M0 0 C0.73511307 0.00359528 1.47022614 0.00719055 2.22761536 0.01089478 C2.99829346 0.01074875 3.76897156 0.01060272 4.56300354 0.01045227 C7.12237823 0.01115157 9.68168104 0.01894471 12.24104309 0.02676392 C14.01081299 0.02862804 15.7805834 0.03005197 17.550354 0.03105164 C22.2176505 0.03487728 26.88491607 0.04470796 31.55220032 0.05575562 C36.31110719 0.06596873 41.07001905 0.07054904 45.82893372 0.07559204 C55.17334837 0.08633019 64.51774004 0.10340717 73.86213684 0.12442017 C74.14593704 0.76980743 74.42973724 1.4151947 74.72213745 2.08013916 C81.235946 16.89189046 87.75907037 31.69946546 94.29963684 46.49942017 C94.70733307 47.42219757 95.1150293 48.34497498 95.53507996 49.29571533 C100.40046223 60.30760299 105.27598977 71.31478565 110.17463684 82.31192017 C114.29577215 91.56637455 118.3706354 100.84042989 122.42463684 110.12442017 C134.44751612 137.65492317 146.57942846 165.1382211 158.90510559 192.53457642 C162.57884325 200.72162455 166.21764419 208.9243117 169.86213684 217.12442017 C170.19213684 145.51442017 170.52213684 73.90442017 170.86213684 0.12442017 C202.87213684 0.12442017 234.88213684 0.12442017 267.86213684 0.12442017 C270.86213684 10.12442017 270.86213684 10.12442017 270.86213684 13.12442017 C270.20213684 13.12442017 269.54213684 13.12442017 268.86213684 13.12442017 C268.35845927 11.6673529 267.85931128 10.20871921 267.36213684 8.74942017 C266.94448059 7.5312561 266.94448059 7.5312561 266.51838684 6.28848267 C265.86213684 4.12442017 265.86213684 4.12442017 265.86213684 2.12442017 C235.17213684 2.12442017 204.48213684 2.12442017 172.86213684 2.12442017 C172.86213684 74.72442017 172.86213684 147.32442017 172.86213684 222.12442017 C173.19213684 222.12442017 173.52213684 222.12442017 173.86213684 222.12442017 C192.01213684 222.12442017 210.16213684 222.12442017 228.86213684 222.12442017 C229.19213684 173.28442017 229.52213684 124.44442017 229.86213684 74.12442017 C230.19213684 74.12442017 230.52213684 74.12442017 230.86213684 74.12442017 C230.86213684 123.62442017 230.86213684 173.12442017 230.86213684 224.12442017 C188.29213684 224.12442017 145.72213684 224.12442017 101.86213684 224.12442017 C87.86213684 190.12442017 87.86213684 190.12442017 83.86213684 180.12442017 C50.20213684 179.79442017 16.54213684 179.46442017 -18.13786316 179.12442017 C-19.12786316 182.09442017 -20.11786316 185.06442017 -21.13786316 188.12442017 C-22.0495644 190.46017577 -22.98615135 192.78640949 -23.95036316 195.10098267 C-24.20535583 195.71533173 -24.46034851 196.32968079 -24.72306824 196.96264648 C-25.52506913 198.89280633 -26.33141107 200.82111655 -27.13786316 202.74942017 C-27.67720569 204.04617873 -28.21626995 205.34305307 -28.75505066 206.64004517 C-31.18498349 212.48198079 -33.64539561 218.30866255 -36.13786316 224.12442017 C-58.57786316 224.12442017 -81.01786316 224.12442017 -104.13786316 224.12442017 C-102.1597355 218.19003718 -100.16548016 212.64478022 -97.57536316 207.00723267 C-97.23175751 206.24910782 -96.88815186 205.49098297 -96.53413391 204.70988464 C-95.79291776 203.07527797 -95.04978899 201.44153746 -94.30491638 199.80859375 C-92.27848351 195.36492882 -90.26745008 190.91429739 -88.25505066 186.46426392 C-87.62601334 185.07450096 -87.62601334 185.07450096 -86.98426819 183.65666199 C-82.34853112 173.40243369 -77.80200297 163.10918453 -73.26286316 152.81192017 C-72.45186709 150.97327988 -71.6408322 149.13465671 -70.82975769 147.29605103 C-69.65888733 144.64158788 -68.48810663 141.98708541 -67.31764221 139.33244324 C-59.92770017 122.57322997 -52.46437304 105.8468981 -44.98106384 89.12921143 C-38.93964533 75.6322352 -32.90060493 62.13420157 -26.88786316 48.62442017 C-26.56014923 47.88824463 -26.2324353 47.15206909 -25.89479065 46.39358521 C-20.5214113 34.3149305 -15.23825349 22.1985205 -10.03337097 10.04629517 C-9.53289246 8.88227173 -9.03241394 7.71824829 -8.51676941 6.51895142 C-8.07921326 5.49648315 -7.6416571 4.47401489 -7.19084167 3.42056274 C-5.40621018 -0.47103457 -4.15298517 0.00857082 0 0 Z " fill="#026FCE" transform="translate(342.1378631591797,162.87557983398438)"/>
<path d="M0 0 C61.71 0 123.42 0 187 0 C187 15.84 187 31.68 187 48 C145.09 48 103.18 48 60 48 C60 59.88 60 71.76 60 84 C101.25 84 142.5 84 185 84 C185 100.5 185 117 185 134 C143.75 134 102.5 134 60 134 C60 145.55 60 157.1 60 169 C102.24 169 144.48 169 188 169 C188 185.83 188 202.66 188 220 C125.96 220 63.92 220 0 220 C0 147.4 0 74.8 0 0 Z " fill="#006ECE" transform="translate(325,421)"/>
<path d="M0 0 C4.20956515 1.05239129 4.69169815 1.37875411 7.25 4.52734375 C11.01333764 9.02790239 14.971731 13.29886279 19 17.5625 C19.67289063 18.27857422 20.34578125 18.99464844 21.0390625 19.73242188 C24.24217443 23.13031764 27.4713043 26.49104653 30.78515625 29.78125 C33.10891389 32.08887501 35.32606251 34.43119628 37.4375 36.9375 C39.85617779 39.74576347 42.35899683 42.39970593 45 45 C47.5792506 47.53972186 50.02217389 50.12451314 52.375 52.875 C55.11621449 56.06682509 58.00685888 59.04302977 61 62 C64.60719127 65.56359983 67.99477889 69.21924856 71.2890625 73.0703125 C73.11799863 75.13308521 75.03580458 77.0659072 77 79 C79.5792506 81.53972186 82.02217389 84.12451314 84.375 86.875 C87.93427308 91.02204295 91.80145926 94.8176 95.6875 98.65625 C98.31424464 101.31849119 100.68431877 104.06680377 103 107 C101.38884696 110.8982496 98.73480734 113.67093976 95.875 116.6875 C95.35147949 117.24711426 94.82795898 117.80672852 94.28857422 118.38330078 C92.53044543 120.26003553 90.76546227 122.1301639 89 124 C87.71326439 125.36822887 86.42681332 126.73672539 85.140625 128.10546875 C82.4319257 130.98649153 79.72057261 133.86498843 77.0078125 136.7421875 C73.32599151 140.64982214 69.65999028 144.57192459 66 148.5 C60.34015143 154.57347153 54.65413549 160.6218562 48.9609375 166.6640625 C44.05532098 171.87272869 39.16909971 177.09907016 34.29125977 182.33374023 C29.18822166 187.80659512 24.05875752 193.25432271 18.92358398 198.69702148 C15.64258219 202.17808926 12.37421356 205.66949497 9.1328125 209.1875 C8.52961182 209.84161865 7.92641113 210.4957373 7.30493164 211.16967773 C6.16630941 212.40657533 5.02997584 213.6455847 3.89624023 214.88696289 C2.61716683 216.27634737 1.31147008 217.64115333 0 219 C-0.33 219 -0.66 219 -1 219 C-1 202.17 -1 185.34 -1 168 C-43.24 168 -85.48 168 -129 168 C-129 156.45 -129 144.9 -129 133 C-87.75 133 -46.5 133 -4 133 C-4 116.5 -4 100 -4 83 C-45.25 83 -86.5 83 -129 83 C-129 71.45 -129 59.9 -129 48 C-86.43 48 -43.86 48 0 48 C0 32.16 0 16.32 0 0 Z " fill="#FBFDFE" transform="translate(514,422)"/>
<path d="M0 0 C0 71.61 0 143.22 0 217 C-6.24434277 211.6477062 -11.96990094 206.40593497 -17.3125 200.1875 C-20.07618029 196.97666245 -22.98619596 193.97732835 -26 191 C-29.56400302 187.47893677 -32.90304168 183.86813992 -36.15625 180.0625 C-38.34796313 177.61075311 -40.66067104 175.31114427 -43 173 C-46.56400302 169.47893677 -49.90304168 165.86813992 -53.15625 162.0625 C-56.15350228 158.70964151 -59.39159634 155.60106244 -62.58984375 152.44140625 C-65.26854532 149.72797273 -67.74608118 146.89222977 -70.22265625 143.99609375 C-72.23268777 141.73867374 -74.34832953 139.62264287 -76.5 137.5 C-79.26560408 134.77170593 -81.91287031 132.01483166 -84.4375 129.0625 C-87.96161699 124.9455409 -91.78905138 121.17571212 -95.66796875 117.39453125 C-97.95848369 115.04262897 -99.99396894 112.59631146 -102 110 C-100.52752479 104.94481441 -97.51646732 102.20486947 -93.8125 98.6875 C-92.62702802 97.53448003 -91.44341949 96.37954095 -90.26171875 95.22265625 C-89.4116626 94.39145264 -89.4116626 94.39145264 -88.54443359 93.54345703 C-86.06656877 91.06715899 -83.80521631 88.4258458 -81.5390625 85.7578125 C-79.39465906 83.30862076 -77.07138779 81.06118444 -74.75 78.78125 C-72.91757513 76.91610326 -71.20646865 74.98072254 -69.5 73 C-67.2544206 70.39352391 -64.95448488 67.91065479 -62.5 65.5 C-60.08667283 63.12957643 -57.82728147 60.69263692 -55.625 58.125 C-52.39852835 54.37766297 -48.95440285 50.91098784 -45.40625 47.46875 C-42.78231508 44.77666093 -40.33645362 41.96611536 -37.87353516 39.12744141 C-34.19823905 34.95405983 -30.3428292 30.94749631 -26.51757812 26.91210938 C-22.94852505 23.12986878 -19.51335842 19.30000806 -16.24633789 15.25219727 C-15.83504639 14.83897217 -15.42375488 14.42574707 -15 14 C-14.34 14 -13.68 14 -13 14 C-12.77441406 13.44828125 -12.54882812 12.8965625 -12.31640625 12.328125 C-10.60446306 9.30047473 -8.41342989 7.18674251 -5.9375 4.75 C-5.03902344 3.85796875 -4.14054688 2.9659375 -3.21484375 2.046875 C-1 0 -1 0 0 0 Z " fill="#FAFDFE" transform="translate(800,421)"/>
<path d="M0 0 C0.33 0 0.66 0 1 0 C1 41.25 1 82.5 1 125 C-6.87544019 118.2496227 -6.87544019 118.2496227 -9.54296875 115.37109375 C-10.13537354 114.73550537 -10.72777832 114.09991699 -11.33813477 113.44506836 C-11.94842529 112.7825708 -12.55871582 112.12007324 -13.1875 111.4375 C-13.83968506 110.73568604 -14.49187012 110.03387207 -15.16381836 109.31079102 C-17.11329746 107.21093101 -19.05741942 105.10624122 -21 103 C-22.04942634 101.86453451 -23.09890149 100.72911413 -24.1484375 99.59375 C-25.6028315 98.01924186 -27.05646485 96.44405489 -28.50830078 94.8671875 C-32.34040168 90.70581547 -36.19856256 86.56930775 -40.0625 82.4375 C-46.08432308 75.99702081 -52.05690926 69.5131423 -58 63 C-48.98344705 52.36509139 -39.47717021 42.20812102 -29.92871094 32.05371094 C-26.92458367 28.8548858 -23.93078666 25.64646569 -20.9375 22.4375 C-20.37369629 21.83389648 -19.80989258 21.23029297 -19.22900391 20.60839844 C-16.16022033 17.32185279 -13.09938799 14.02822977 -10.046875 10.7265625 C-9.40113525 10.02990479 -8.75539551 9.33324707 -8.09008789 8.61547852 C-6.84228446 7.26904209 -5.59660176 5.92063649 -4.35327148 4.57006836 C-2.92220639 3.02788478 -1.46389864 1.51105204 0 0 Z " fill="#026FCE" transform="translate(799,467)"/>
<path d="M0 0 C1.62116607 2.43174911 2.70894704 4.4644907 3.82836914 7.12231445 C4.17956314 7.95201248 4.53075714 8.78171051 4.89259338 9.6365509 C5.26963913 10.53637192 5.64668488 11.43619293 6.03515625 12.36328125 C6.43270615 13.30568161 6.83025604 14.24808197 7.23985291 15.21903992 C8.0860853 17.22671065 8.93081507 19.23501529 9.77416992 21.24389648 C11.03047781 24.23622808 12.29113979 27.22669098 13.55273438 30.21679688 C17.78689459 40.26542527 21.97956673 50.33079408 26.12109375 60.41796875 C26.51192642 61.36722733 26.90275909 62.3164859 27.30543518 63.29450989 C27.6602446 64.16178207 28.01505402 65.02905426 28.38061523 65.92260742 C28.69441635 66.68828537 29.00821747 67.45396332 29.33152771 68.24284363 C30 70 30 70 30 71 C10.53 71 -8.94 71 -29 71 C-28.09900034 66.4950017 -26.75099056 62.66656631 -24.97265625 58.48046875 C-24.66792892 57.75274765 -24.3632016 57.02502655 -24.04924011 56.2752533 C-23.05801186 53.91081432 -22.06035044 51.54915092 -21.0625 49.1875 C-20.37879438 47.56056785 -19.69552843 45.93345088 -19.01269531 44.30615234 C-17.64917396 41.05763829 -16.28351082 37.81003695 -14.91650391 34.56298828 C-13.22703039 30.54594017 -11.55313553 26.52276167 -9.88671875 22.49609375 C-9.43482178 21.40466064 -8.9829248 20.31322754 -8.51733398 19.1887207 C-7.69662079 17.20468489 -6.87704803 15.22017679 -6.05883789 13.23510742 C-4.19007119 8.73133429 -2.25489024 4.32425153 0 0 Z " fill="#F8FCFE" transform="translate(375,221)"/>
<path d="M0 0 C62.37 0 124.74 0 189 0 C189 0.33 189 0.66 189 1 C126.96 1 64.92 1 1 1 C1 73.93 1 146.86 1 222 C32.081875 221.9175 63.16375 221.835 95.1875 221.75 C109.91991333 221.72631348 109.91991333 221.72631348 124.94995117 221.70214844 C133.73826959 221.66893698 133.73826959 221.66893698 142.52656555 221.63043213 C146.44721828 221.61339649 150.36771747 221.60756978 154.28840637 221.60845947 C159.28681986 221.60922919 164.28482249 221.59100218 169.28312933 221.55891085 C171.11917603 221.55037709 172.95526893 221.54856483 174.79132688 221.55417585 C177.26922824 221.56079046 179.74579013 221.54297784 182.22355652 221.51898193 C182.94417424 221.52674274 183.66479197 221.53450356 184.40724659 221.54249954 C189.19480409 221.46051617 191.59005729 220.33136623 195 217 C194.67 218.65 194.34 220.3 194 222 C218.42 222 242.84 222 268 222 C268 222.33 268 222.66 268 223 C179.56 223 91.12 223 0 223 C0 149.41 0 75.82 0 0 Z " fill="#1A6AAF" transform="translate(324,419)"/>
<path d="M0 0 C0.33 0 0.66 0 1 0 C1.33 83.16 1.66 166.32 2 252 C51.21261875 252.28892699 51.21261875 252.28892699 100.42529297 252.56811523 C109.99243164 252.6270752 109.99243164 252.6270752 114.4861145 252.65589905 C117.59198169 252.67551856 120.69785147 252.69267851 123.80374146 252.70826721 C157.38632849 252.87903361 157.38632849 252.87903361 172 254 C172 254.33 172 254.66 172 255 C115.24 255 58.48 255 0 255 C0 170.85 0 86.7 0 0 Z " fill="#D2EDF9" transform="translate(290,419)"/>
<path d="M0 0 C50.16 0 100.32 0 152 0 C147.72217046 3.20837216 146.97581297 3.37365822 141.93829346 3.36076355 C140.69591415 3.36488754 139.45353485 3.36901154 138.17350769 3.3732605 C136.79958889 3.36264379 135.42567228 3.35173937 134.05175781 3.34057617 C132.60291054 3.33972982 131.15406198 3.3402052 129.70521545 3.34190369 C125.77364682 3.34276476 121.84235252 3.32512095 117.91084766 3.30418181 C113.8015615 3.28543369 109.69226911 3.28366605 105.58294678 3.28010559 C97.80213129 3.27077964 90.02144219 3.24615843 82.24068236 3.21605712 C71.7260147 3.17626179 61.21131249 3.16006268 50.69658852 3.14255047 C34.13096433 3.11433771 17.56560687 3.05457191 1 3 C1 34.35 1 65.7 1 98 C0.01 98.495 0.01 98.495 -1 99 C-0.67 66.33 -0.34 33.66 0 0 Z " fill="#D9F1FD" transform="translate(480,132)"/>
<path d="M0 0 C42.24 0 84.48 0 128 0 C128 0.33 128 0.66 128 1 C86.42 1 44.84 1 2 1 C2 11.56 2 22.12 2 33 C42.59 33 83.18 33 125 33 C125 33.66 125 34.32 125 35 C83.75 35 42.5 35 0 35 C0 23.45 0 11.9 0 0 Z " fill="#D5F6FE" transform="translate(385,470)"/>
<path d="M0 0 C0.33 0 0.66 0 1 0 C1 49.5 1 99 1 150 C-41.57 150 -84.14 150 -128 150 C-128 149.67 -128 149.34 -128 149 C-119.56232924 148.86445771 -111.12459668 148.73403801 -102.68676662 148.60884857 C-98.76143641 148.55047644 -94.8361383 148.4908237 -90.91088867 148.42724609 C-60.93437581 147.94730846 -30.98787862 148 -1 148 C-0.67 99.16 -0.34 50.32 0 0 Z " fill="#146DB7" transform="translate(572,237)"/>
<path d="M0 0 C31.35 0 62.7 0 95 0 C99 9 99 9 99 12 C98.34 12 97.68 12 97 12 C96.49632243 10.54293274 95.99717444 9.08429904 95.5 7.625 C95.2215625 6.81289062 94.943125 6.00078125 94.65625 5.1640625 C94 3 94 3 94 1 C63.31 1 32.62 1 1 1 C1 73.6 1 146.2 1 221 C0.67 221 0.34 221 0 221 C0 148.07 0 75.14 0 0 Z " fill="#126ABC" transform="translate(514,164)"/>
<path d="M0 0 C2.62027436 2.62027436 3.48198873 5.57923297 4.6875 9 C4.92533203 9.64195312 5.16316406 10.28390625 5.40820312 10.9453125 C6.00166907 12.60910558 6.50730517 14.30363299 7 16 C6.67 16.66 6.34 17.32 6 18 C5.54625 17.505 5.0925 17.01 4.625 16.5 C3.12364481 14.77390663 3.12364481 14.77390663 1 15 C1 60.21 1 105.42 1 152 C-42.23 152 -85.46 152 -130 152 C-130 151.67 -130 151.34 -130 151 C-87.1 151 -44.2 151 0 151 C0 101.17 0 51.34 0 0 Z " fill="#E2FEFF" transform="translate(574,236)"/>
<path d="M0 0 C0.33 0 0.66 0 1 0 C1 50.16 1 100.32 1 152 C20.47 152 39.94 152 60 152 C60 152.66 60 153.32 60 154 C52.19424805 154.02312792 44.38850405 154.04091738 36.58272648 154.05181217 C32.9585404 154.05704002 29.3343777 154.06413587 25.71020508 154.07543945 C22.21540025 154.08627184 18.72061796 154.09227758 15.22579765 154.09487724 C13.23760611 154.09763551 11.24942369 154.10544688 9.26124573 154.11329651 C8.06007614 154.11337204 6.85890656 154.11344757 5.62133789 154.11352539 C4.55766495 154.115746 3.493992 154.11796661 2.39808655 154.12025452 C0 154 0 154 -1 153 C-1.09883534 151.0556034 -1.12632235 149.1075666 -1.12698364 147.16065979 C-1.12980347 145.89163818 -1.13262329 144.62261658 -1.13552856 143.31513977 C-1.13358396 141.89572129 -1.13153577 140.47630296 -1.12939453 139.05688477 C-1.13074853 137.57231605 -1.13252846 136.08774767 -1.13470459 134.60317993 C-1.13927947 130.55983706 -1.13748904 126.51651958 -1.1343255 122.47317624 C-1.13180171 118.25001533 -1.13413954 114.02685667 -1.13571167 109.80369568 C-1.13753351 102.70921435 -1.13512689 95.61474342 -1.13037109 88.52026367 C-1.12493054 80.30929594 -1.12668957 72.09835304 -1.1321975 63.8873859 C-1.13673072 56.8487494 -1.13737809 49.81012038 -1.13475883 42.77148288 C-1.13319694 38.56281085 -1.13299985 34.3541505 -1.13629532 30.1454792 C-1.13917698 26.18848759 -1.13719287 22.23152808 -1.13140106 18.27453995 C-1.13007497 16.81924048 -1.13046505 15.36393832 -1.13266373 13.90863991 C-1.13538111 11.92786885 -1.13137524 9.94709191 -1.12698364 7.96632385 C-1.12660662 6.85594033 -1.12622959 5.74555681 -1.12584114 4.60152531 C-1 2 -1 2 0 0 Z " fill="#BBEAFE" transform="translate(740,235)"/>
<path d="M0 0 C38.28 0 76.56 0 116 0 C116 0.99 116 1.98 116 3 C115.40916437 2.99907821 114.81832874 2.99815641 114.209589 2.99720669 C99.84679992 2.97514197 85.48401234 2.9585838 71.1212101 2.94818783 C64.17552711 2.94302705 57.22985542 2.9359885 50.28417969 2.92456055 C43.58634663 2.91354561 36.88852775 2.90772229 30.19068527 2.90512276 C27.63011871 2.90326925 25.06955282 2.89965006 22.50899124 2.89426994 C18.93387693 2.88705411 15.35881177 2.88600929 11.78369141 2.88647461 C10.18147484 2.8810817 10.18147484 2.8810817 8.54689026 2.87557983 C7.09132469 2.87764183 7.09132469 2.87764183 5.60635376 2.87974548 C4.33704482 2.87836279 4.33704482 2.87836279 3.04209328 2.87695217 C0.93296614 2.86993062 0.93296614 2.86993062 -1 4 C-0.67 2.68 -0.34 1.36 0 0 Z " fill="#CCE9FC" transform="translate(684,132)"/>
<path d="M0 0 C1 4 1 4 0 8 C33 8 66 8 100 8 C100.495 8.99 100.495 8.99 101 10 C66.35 10 31.7 10 -4 10 C-2.68 6.7 -1.36 3.4 0 0 Z " fill="#DEFDFE" transform="translate(191,409)"/>
<path d="M0 0 C0.73511307 0.00359528 1.47022614 0.00719055 2.22761536 0.01089478 C2.99829346 0.01074875 3.76897156 0.01060272 4.56300354 0.01045227 C7.12237823 0.01115157 9.68168104 0.01894471 12.24104309 0.02676392 C14.01081299 0.02862804 15.7805834 0.03005197 17.550354 0.03105164 C22.2176505 0.03487728 26.88491607 0.04470796 31.55220032 0.05575562 C36.31110719 0.06596873 41.07001905 0.07054904 45.82893372 0.07559204 C55.17334837 0.08633019 64.51774004 0.10340717 73.86213684 0.12442017 C74.55913236 1.57823914 75.2444755 3.03764969 75.92463684 4.49942017 C76.3074884 5.31152954 76.69033997 6.12363892 77.08479309 6.96035767 C77.34131653 7.67449829 77.59783997 8.38863892 77.86213684 9.12442017 C77.53213684 9.78442017 77.20213684 10.44442017 76.86213684 11.12442017 C75.87213684 10.79442017 74.88213684 10.46442017 73.86213684 10.12442017 C73.36713684 6.16442017 73.36713684 6.16442017 72.86213684 2.12442017 C34.74713684 2.61942017 34.74713684 2.61942017 -4.13786316 3.12442017 C-5.78786316 7.41442017 -7.43786316 11.70442017 -9.13786316 16.12442017 C-11.11786316 17.11442017 -11.11786316 17.11442017 -13.13786316 18.12442017 C-11.9950517 15.31065722 -10.84877575 12.49839601 -9.70036316 9.68692017 C-9.37487488 8.88447876 -9.0493866 8.08203735 -8.71403503 7.25527954 C-8.24513855 6.10962524 -8.24513855 6.10962524 -7.76676941 4.94082642 C-7.47874451 4.2338562 -7.1907196 3.52688599 -6.89396667 2.79849243 C-5.35306397 -0.61318656 -3.51984093 0.00726415 0 0 Z " fill="#458CC8" transform="translate(342.1378631591797,162.87557983398438)"/>
<path d="M0 0 C30.36 0 60.72 0 92 0 C92 0.66 92 1.32 92 2 C61.97 2 31.94 2 1 2 C0.34 3.32 -0.32 4.64 -1 6 C-1.33 5.34 -1.66 4.68 -2 4 C-1.34 2.68 -0.68 1.36 0 0 Z " fill="#4389C7" transform="translate(708,163)"/>
<path d="M0 0 C10.50920045 -0.09259624 21.01830419 -0.16371219 31.52782917 -0.20724869 C36.40761515 -0.22814192 41.28712247 -0.25649113 46.16674805 -0.30175781 C50.87406854 -0.34515381 55.58112066 -0.36912402 60.28862572 -0.37950897 C62.08644017 -0.3869116 63.88423959 -0.40136696 65.68194008 -0.42292023 C68.19624432 -0.4518718 70.70943341 -0.45595956 73.22387695 -0.45410156 C74.34381294 -0.47567322 74.34381294 -0.47567322 75.4863739 -0.49768066 C77.56416321 -0.48101807 77.56416321 -0.48101807 81 0 C82.98600769 2.02838135 82.98600769 2.02838135 84 4 C83.01 4 82.02 4 81 4 C81 3.34 81 2.68 81 2 C55.92 2 30.84 2 5 2 C4.67 2.99 4.34 3.98 4 5 C2.68 3.35 1.36 1.7 0 0 Z " fill="#1A70B6" transform="translate(514,419)"/>
<path d="M0 0 C0.33 0 0.66 0 1 0 C1 1.65 1 3.3 1 5 C22.12 5 43.24 5 65 5 C65.33 3.68 65.66 2.36 66 1 C67.125 4.75 67.125 4.75 66 7 C43.56 7 21.12 7 -2 7 C-1.34 4.69 -0.68 2.38 0 0 Z " fill="#1B73BA" transform="translate(240,380)"/>
<path d="M0 0 C0.33 0 0.66 0 1 0 C1 36.96 1 73.92 1 112 C0.67 112 0.34 112 0 112 C-0.33 78.67 -0.66 45.34 -1 11 C-2.65 13.64 -4.3 16.28 -6 19 C-7 17 -7 17 -5.8203125 13.33984375 C-5.26306195 11.86939554 -4.69758499 10.40204516 -4.125 8.9375 C-3.84269531 8.19177734 -3.56039062 7.44605469 -3.26953125 6.67773438 C-1.15132548 1.15132548 -1.15132548 1.15132548 0 0 Z " fill="#F1FFFF" transform="translate(739,239)"/>
<path d="M0 0 C22.44 0 44.88 0 68 0 C67.67 0.66 67.34 1.32 67 2 C44.89 2.33 22.78 2.66 0 3 C0 2.01 0 1.02 0 0 Z " fill="#E6FEFF" transform="translate(238,387)"/>
<path d="M0 0 C0.77097015 -0.00043808 1.54194031 -0.00087616 2.33627319 -0.00132751 C4.88500276 0.00076279 7.43307479 0.02410471 9.98168945 0.04760742 C11.74859762 0.05320253 13.51551044 0.05747303 15.28242493 0.06047058 C19.93336838 0.07192609 24.58403086 0.1013993 29.23486328 0.13458252 C33.98051146 0.16526821 38.72620504 0.1789727 43.47192383 0.1940918 C52.78389625 0.22626836 62.09566011 0.27747322 71.4074707 0.34057617 C69.6574707 4.21557617 69.6574707 4.21557617 67.4074707 5.34057617 C67.4074707 4.02057617 67.4074707 2.70057617 67.4074707 1.34057617 C57.94106254 1.40174259 48.47495741 1.47881596 39.00885296 1.57629108 C34.61350519 1.62104935 30.21825129 1.66029323 25.82275391 1.68701172 C21.58210471 1.71299057 17.34181566 1.75335394 13.10138893 1.80376244 C11.48229255 1.82046797 9.86313382 1.83195925 8.24396324 1.83819008 C5.97866288 1.84779148 3.71429157 1.87580103 1.44921875 1.90820312 C0.15904343 1.91930618 -1.1311319 1.93040924 -2.46040344 1.94184875 C-5.58721769 2.0670732 -5.58721769 2.0670732 -7.53263855 3.86759949 C-7.8824025 4.35368179 -8.23216644 4.8397641 -8.5925293 5.34057617 C-9.2525293 4.68057617 -9.9125293 4.02057617 -10.5925293 3.34057617 C-7.88721381 -0.5604642 -4.31759899 -0.06397505 0 0 Z " fill="#2771B1" transform="translate(728.592529296875,418.659423828125)"/>
<path d="M0 0 C0 3.57430369 -0.57148438 3.93787409 -2.9375 6.4375 C-5.3322828 8.96815701 -6.23224234 10.62884589 -7 14 C-10.32142857 17 -10.32142857 17 -13 17 C-14.70680947 18.62553283 -16.37660195 20.29115995 -18 22 C-18.66 21.67 -19.32 21.34 -20 21 C-19.57589844 20.5875 -19.15179687 20.175 -18.71484375 19.75 C-14.85941398 15.95388454 -11.24184296 12.03168086 -7.7109375 7.93359375 C-5.25809972 5.16155106 -2.64889006 2.58428299 0 0 Z " fill="#1673C1" transform="translate(594,555)"/>
<path d="M0 0 C0.33 0 0.66 0 1 0 C1 15.18 1 30.36 1 46 C1.99 46.33 2.98 46.66 4 47 C2.68 47.99 1.36 48.98 0 50 C0 33.5 0 17 0 0 Z " fill="#E5FCFF" transform="translate(514,590)"/>
<path d="M0 0 C0.66 0 1.32 0 2 0 C6.22323462 11.52164009 6.22323462 11.52164009 8 17 C9.65 16.67 11.3 16.34 13 16 C12.01 19.3 11.02 22.6 10 26 C7.59940183 23.59940183 7.10504049 21.77351118 6.0546875 18.5546875 C5.52294922 16.94013672 5.52294922 16.94013672 4.98046875 15.29296875 C4.61566406 14.16503906 4.25085938 13.03710938 3.875 11.875 C3.50246094 10.73933594 3.12992188 9.60367187 2.74609375 8.43359375 C1.82533817 5.62410878 0.91022665 2.8129103 0 0 Z " fill="#D4F4FE" transform="translate(649,275)"/>
<path d="M0 0 C0.33 0.66 0.66 1.32 1 2 C0.04882866 3.1725131 -0.91117009 4.33787015 -1.875 5.5 C-2.67550781 6.47453125 -2.67550781 6.47453125 -3.4921875 7.46875 C-3.98976563 7.9740625 -4.48734375 8.479375 -5 9 C-5.66 9 -6.32 9 -7 9 C-7.09152344 9.59296875 -7.18304687 10.1859375 -7.27734375 10.796875 C-8.17232113 13.52534657 -9.33906301 14.47125041 -11.5625 16.25 C-12.20316406 16.77078125 -12.84382812 17.2915625 -13.50390625 17.828125 C-13.99761719 18.21484375 -14.49132812 18.6015625 -15 19 C-15.66 18.67 -16.32 18.34 -17 18 C-5.47835991 5.33029613 -5.47835991 5.33029613 0 0 Z " fill="#D7F2FC" transform="translate(756,467)"/>
<path d="M0 0 C2.62027436 2.62027436 3.48198873 5.57923297 4.6875 9 C4.92533203 9.64195312 5.16316406 10.28390625 5.40820312 10.9453125 C6.00166907 12.60910558 6.50730517 14.30363299 7 16 C6.67 16.66 6.34 17.32 6 18 C5.54625 17.505 5.0925 17.01 4.625 16.5 C3.12364481 14.77390663 3.12364481 14.77390663 1 15 C0.67 10.05 0.34 5.1 0 0 Z " fill="#E8F9FD" transform="translate(574,236)"/>
<path d="M0 0 C0.33 0 0.66 0 1 0 C1.63081571 8.0429003 1.63081571 8.0429003 -0.8125 11.75 C-1.534375 12.4925 -2.25625 13.235 -3 14 C-4.0268343 15.6502694 -5.03567924 17.31243867 -6 19 C-7 17 -7 17 -5.8203125 13.33984375 C-5.26306195 11.86939554 -4.69758499 10.40204516 -4.125 8.9375 C-3.84269531 8.19177734 -3.56039062 7.44605469 -3.26953125 6.67773438 C-1.15132548 1.15132548 -1.15132548 1.15132548 0 0 Z " fill="#D9F3FB" transform="translate(739,239)"/>
<path d="M0 0 C0.33 0 0.66 0 1 0 C1 5.28 1 10.56 1 16 C-1.47543247 12.69942337 -2.76116089 10.48799214 -4.1875 6.75 C-4.53167969 5.85796875 -4.87585938 4.9659375 -5.23046875 4.046875 C-5.48441406 3.37140625 -5.73835938 2.6959375 -6 2 C-5.01 2.33 -4.02 2.66 -3 3 C-2.67 3.99 -2.34 4.98 -2 6 C-1.34 4.02 -0.68 2.04 0 0 Z " fill="#E0FAFE" transform="translate(512,366)"/>
<path d="M0 0 C0.83265381 0.00523682 1.66530762 0.01047363 2.52319336 0.01586914 C3.42231445 0.0190918 4.32143555 0.02231445 5.24780273 0.02563477 C6.66609375 0.03820312 6.66609375 0.03820312 8.11303711 0.05102539 C9.06243164 0.05553711 10.01182617 0.06004883 10.98999023 0.06469727 C13.34356776 0.07652429 15.69702188 0.09300514 18.05053711 0.11352539 C18.05053711 0.44352539 18.05053711 0.77352539 18.05053711 1.11352539 C11.78053711 1.11352539 5.51053711 1.11352539 -0.94946289 1.11352539 C-1.27946289 2.43352539 -1.60946289 3.75352539 -1.94946289 5.11352539 C-2.5963994 6.78794929 -3.25905715 8.4565516 -3.94946289 10.11352539 C-4.60946289 10.11352539 -5.26946289 10.11352539 -5.94946289 10.11352539 C-5.47395728 8.63317775 -4.99395073 7.15427518 -4.51196289 5.67602539 C-4.24512695 4.85231445 -3.97829102 4.02860352 -3.70336914 3.17993164 C-2.59841121 0.15131637 -2.59841121 0.15131637 0 0 Z " fill="#E3F8FD" transform="translate(325.949462890625,342.886474609375)"/>
<path d="M0 0 C1.19332515 4.77330058 0.39412339 6.28262588 -1.4375 10.75 C-1.91058594 11.92046875 -2.38367188 13.0909375 -2.87109375 14.296875 C-3.24363281 15.18890625 -3.61617188 16.0809375 -4 17 C-4.66 17 -5.32 17 -6 17 C-6.33 18.65 -6.66 20.3 -7 22 C-7.66 21.67 -8.32 21.34 -9 21 C-6.03 14.07 -3.06 7.14 0 0 Z " fill="#287AC1" transform="translate(287,274)"/>
<path d="M0 0 C0 2 0 4 0 6 C-0.99 6 -1.98 6 -3 6 C-3.2475 6.598125 -3.495 7.19625 -3.75 7.8125 C-5.16370012 10.28647521 -6.65055383 11.43370255 -9 13 C-9.66 12.67 -10.32 12.34 -11 12 C-7.37 8.04 -3.74 4.08 0 0 Z " fill="#1D75C4" transform="translate(756,513)"/>
<path d="M0 0 C0.66 0 1.32 0 2 0 C3.17133058 2.45620851 4.33721722 4.91474917 5.5 7.375 C6.00080078 8.42300781 6.00080078 8.42300781 6.51171875 9.4921875 C9 14.7734375 9 14.7734375 9 17 C8.34 17 7.68 17 7 17 C7 16.34 7 15.68 7 15 C6.34 15 5.68 15 5 15 C5 13.35 5 11.7 5 10 C4.34 10 3.68 10 3 10 C2.01 6.7 1.02 3.4 0 0 Z " fill="#1D77BE" transform="translate(438,218)"/>
<path d="M0 0 C0.66 0 1.32 0 2 0 C2.33 0.99 2.66 1.98 3 3 C2.01 4.485 2.01 4.485 1 6 C0.34 6 -0.32 6 -1 6 C-1 7.32 -1 8.64 -1 10 C-1.66 10 -2.32 10 -3 10 C-3.12375 10.804375 -3.2475 11.60875 -3.375 12.4375 C-3.58125 13.283125 -3.7875 14.12875 -4 15 C-4.99 15.495 -4.99 15.495 -6 16 C-4.25192871 10.53262809 -2.34205919 5.24175152 0 0 Z " fill="#1C75C0" transform="translate(305,234)"/>
<path d="M0 0 C2.97 0 5.94 0 9 0 C8.67 0.66 8.34 1.32 8 2 C7.34 2 6.68 2 6 2 C5.67 3.65 5.34 5.3 5 7 C2.5 5.1875 2.5 5.1875 0 3 C0 2.01 0 1.02 0 0 Z " fill="#0D72C5" transform="translate(520,424)"/>
<path d="M0 0 C0.66 0 1.32 0 2 0 C1.35534798 4.33304076 -0.18925122 7.86672065 -2.0625 11.8125 C-2.61035156 12.97394531 -3.15820312 14.13539063 -3.72265625 15.33203125 C-4.14417969 16.21246094 -4.56570312 17.09289062 -5 18 C-5.33 18 -5.66 18 -6 18 C-6 16.02 -6 14.04 -6 12 C-5.34 12 -4.68 12 -4 12 C-4 10.68 -4 9.36 -4 8 C-3.34 8 -2.68 8 -2 8 C-1.34 5.36 -0.68 2.72 0 0 Z " fill="#1574BC" transform="translate(207,368)"/>
<path d="M0 0 C0.33 0 0.66 0 1 0 C1 2.31 1 4.62 1 7 C0.34 7 -0.32 7 -1 7 C-1.33 10.3 -1.66 13.6 -2 17 C-2.99 17 -3.98 17 -5 17 C-3.83348574 11.07136283 -2.24480642 5.61201606 0 0 Z " fill="#1E76C1" transform="translate(696,195)"/>
<path d="M0 0 C0.99 0.33 1.98 0.66 3 1 C3 2.32 3 3.64 3 5 C3.99 5 4.98 5 6 5 C5.979375 5.969375 5.95875 6.93875 5.9375 7.9375 C5.64381501 10.87465895 5.64381501 10.87465895 7 12 C7.04080783 13.99958364 7.04254356 16.00045254 7 18 C4.73453148 14.60179721 3.61098372 11.16057722 2.375 7.3125 C2.14554688 6.61060547 1.91609375 5.90871094 1.6796875 5.18554688 C1.11570791 3.45835938 0.55730661 1.72935218 0 0 Z " fill="#D8F4FC" transform="translate(642,256)"/>
<path d="M0 0 C4.32504836 1.65863505 7.09418825 4.871041 10.25 8.125 C11.08144531 8.96998047 11.08144531 8.96998047 11.9296875 9.83203125 C13.29104485 11.21686028 14.64614859 12.60783204 16 14 C13 14 13 14 10.625 11.8828125 C9.75875 10.97273437 8.8925 10.06265625 8 9.125 C5.38729326 6.39565456 3.14810735 4.09873823 0 2 C0 1.34 0 0.68 0 0 Z " fill="#2273BA" transform="translate(717,553)"/>
<path d="M0 0 C0.33 0 0.66 0 1 0 C1.3118744 4.26488247 0.34425989 6.98566073 -1.5 10.8125 C-1.9640625 11.78832031 -2.428125 12.76414063 -2.90625 13.76953125 C-3.2671875 14.50558594 -3.628125 15.24164063 -4 16 C-4.99 16 -5.98 16 -7 16 C-4.69 10.72 -2.38 5.44 0 0 Z " fill="#1D78C0" transform="translate(336,164)"/>
<path d="M0 0 C0.66 0 1.32 0 2 0 C2 0.99 2 1.98 2 3 C2.99 3.33 3.98 3.66 5 4 C6.75 6.375 6.75 6.375 8 9 C7.67 9.99 7.34 10.98 7 12 C4.03 8.7 1.06 5.4 -2 2 C-1.34 1.34 -0.68 0.68 0 0 Z " fill="#DBF5FD" transform="translate(602,424)"/>
<path d="M0 0 C0.33 0 0.66 0 1 0 C1 1.65 1 3.3 1 5 C0.34 5 -0.32 5 -1 5 C-0.95875 5.928125 -0.9175 6.85625 -0.875 7.8125 C-1 11 -1 11 -3 14 C-3.66 14 -4.32 14 -5 14 C-4.34580901 8.93001981 -2.1453591 4.58009223 0 0 Z " fill="#2076BF" transform="translate(250,358)"/>
<path d="M0 0 C0.66 0.99 1.32 1.98 2 3 C0.625 6.6875 0.625 6.6875 -1 10 C-1.66 10 -2.32 10 -3 10 C-3.33 11.32 -3.66 12.64 -4 14 C-4.33 13.34 -4.66 12.68 -5 12 C-4.26821134 9.92803369 -3.44100997 7.8891448 -2.5625 5.875 C-2.08941406 4.77929688 -1.61632812 3.68359375 -1.12890625 2.5546875 C-0.75636719 1.71164062 -0.38382813 0.86859375 0 0 Z " fill="#D4F1FB" transform="translate(254,266)"/>
<path d="M0 0 C0.66 0.33 1.32 0.66 2 1 C0.66415278 5.00754167 -1.76893828 6.37476236 -5 9 C-5.33 9.66 -5.66 10.32 -6 11 C-6.99 10.67 -7.98 10.34 -9 10 C-6.03 6.7 -3.06 3.4 0 0 Z " fill="#D7F4FC" transform="translate(647,580)"/>
<path d="M0 0 C1.32 0.33 2.64 0.66 4 1 C4.375 3.25 4.375 3.25 4 6 C1 8.3125 1 8.3125 -2 10 C-2.66 9.67 -3.32 9.34 -4 9 C-2.7315625 7.88625 -2.7315625 7.88625 -1.4375 6.75 C-0.633125 5.8425 0.17125 4.935 1 4 C0.95502158 1.72476911 0.95502158 1.72476911 0 0 Z " fill="#2479C3" transform="translate(615,527)"/>
<path d="M0 0 C1.39195915 4.17587745 -0.17676781 6.13474776 -2 10 C-4.12508244 6.81237635 -4.5020163 4.73487777 -5 1 C-4.34 1 -3.68 1 -3 1 C-3 1.99 -3 2.98 -3 4 C-2.34 4 -1.68 4 -1 4 C-0.67 2.68 -0.34 1.36 0 0 Z " fill="#2175BF" transform="translate(660,195)"/>
<path d="M0 0 C0.66 0.66 1.32 1.32 2 2 C0.35 5.63 -1.3 9.26 -3 13 C-3.99 13 -4.98 13 -6 13 C-4.02 8.71 -2.04 4.42 0 0 Z " fill="#2078C0" transform="translate(271,311)"/>
<path d="M0 0 C0.66 0.33 1.32 0.66 2 1 C-0.475 6.94 -0.475 6.94 -3 13 C-3.33 13 -3.66 13 -4 13 C-4.75 10.3125 -4.75 10.3125 -5 7 C-3.125 4.25 -3.125 4.25 -1 2 C-0.67 1.34 -0.34 0.68 0 0 Z " fill="#1571BC" transform="translate(357,259)"/>
<path d="M0 0 C2 1 2 1 2.8515625 3.28515625 C3.10679687 4.20167969 3.36203125 5.11820313 3.625 6.0625 C3.88539063 6.98160156 4.14578125 7.90070313 4.4140625 8.84765625 C4.60742188 9.55792969 4.80078125 10.26820313 5 11 C4.01 11.495 4.01 11.495 3 12 C3 10.68 3 9.36 3 8 C1.68 7.34 0.36 6.68 -1 6 C-0.67 4.02 -0.34 2.04 0 0 Z " fill="#1876C0" transform="translate(627,217)"/>
<path d="M0 0 C1.32 0.33 2.64 0.66 4 1 C1.36 3.64 -1.28 6.28 -4 9 C-4.33 7.68 -4.66 6.36 -5 5 C-4.01 5 -3.02 5 -2 5 C-1.34 3.35 -0.68 1.7 0 0 Z " fill="#E0F7FE" transform="translate(574,572)"/>
<path d="M0 0 C0.33 0.99 0.66 1.98 1 3 C0.01 3.33 -0.98 3.66 -2 4 C-2.433125 4.86625 -2.433125 4.86625 -2.875 5.75 C-4.38015001 8.76030003 -6.57377963 10.70147544 -9 13 C-9.66 12.67 -10.32 12.34 -11 12 C-10.54109375 11.55269531 -10.0821875 11.10539063 -9.609375 10.64453125 C-6.16447701 7.25029352 -2.92744915 3.86423288 0 0 Z " fill="#CEF1FC" transform="translate(717,508)"/>
<path d="M0 0 C0 3.30941204 -0.40339294 5.11090151 -2 8 C-4.625 8.8125 -4.625 8.8125 -7 9 C-6.02180976 7.68677212 -5.0424189 6.37443848 -4.0625 5.0625 C-3.51722656 4.33160156 -2.97195313 3.60070312 -2.41015625 2.84765625 C-1 1 -1 1 0 0 Z " fill="#1A74BE" transform="translate(712,429)"/>
<path d="M0 0 C0.66 0 1.32 0 2 0 C2 0.99 2 1.98 2 3 C2.99 3.33 3.98 3.66 5 4 C5.33 7.3 5.66 10.6 6 14 C3.74402173 11.74402173 3.03425808 9.95396133 1.875 7 C1.52179688 6.113125 1.16859375 5.22625 0.8046875 4.3125 C0 2 0 2 0 0 Z " fill="#1770BE" transform="translate(387,248)"/>
<path d="M0 0 C0.66 0 1.32 0 2 0 C1.45660208 4.56454251 0.20536179 7.9728176 -2 12 C-2.66 11.34 -3.32 10.68 -4 10 C-3.63318342 7.06546739 -3.13562754 6.13562754 -1 4 C-0.3574765 1.93125966 -0.3574765 1.93125966 0 0 Z " fill="#1274BD" transform="translate(264,238)"/>
<path d="M0 0 C0.99 0.495 0.99 0.495 2 1 C2.73075648 3.3140622 3.40138258 5.64828869 4 8 C4.66 8 5.32 8 6 8 C6 9.98 6 11.96 6 14 C2.59801074 9.95001278 0 5.36373351 0 0 Z " fill="#1C74BB" transform="translate(429,348)"/>
<path d="M0 0 C0.33 0.99 0.66 1.98 1 3 C0.00390625 4.82421875 0.00390625 4.82421875 -1.4375 6.6875 C-1.91058594 7.31011719 -2.38367188 7.93273437 -2.87109375 8.57421875 C-3.24363281 9.04472656 -3.61617187 9.51523437 -4 10 C-4.99 9.34 -5.98 8.68 -7 8 C-4.69 5.36 -2.38 2.72 0 0 Z " fill="#D5F5FD" transform="translate(627,602)"/>
<path d="M0 0 C0.33 0.66 0.66 1.32 1 2 C-0.98 4.31 -2.96 6.62 -5 9 C-5.99 8.67 -6.98 8.34 -8 8 C-5.36 5.36 -2.72 2.72 0 0 Z " fill="#E0F9FF" transform="translate(756,467)"/>
<path d="M0 0 C0.33 0.66 0.66 1.32 1 2 C-0.98 4.31 -2.96 6.62 -5 9 C-5.99 8.67 -6.98 8.34 -8 8 C-5.36 5.36 -2.72 2.72 0 0 Z " fill="#D3EFFC" transform="translate(780,441)"/>
<path d="M0 0 C0.99386719 0.02707031 1.98773437 0.05414063 3.01171875 0.08203125 C4.15060547 0.13423828 4.15060547 0.13423828 5.3125 0.1875 C5.3125 0.5175 5.3125 0.8475 5.3125 1.1875 C4.39017578 1.24357422 4.39017578 1.24357422 3.44921875 1.30078125 C2.23685547 1.39939453 2.23685547 1.39939453 1 1.5 C0.19949219 1.55800781 -0.60101562 1.61601562 -1.42578125 1.67578125 C-4.05022334 2.26956694 -4.99570672 3.14530294 -6.6875 5.1875 C-7.3475 4.5275 -8.0075 3.8675 -8.6875 3.1875 C-6.10291354 -0.17334451 -4.11082043 -0.14508778 0 0 Z " fill="#287ABB" transform="translate(726.6875,418.8125)"/>
<path d="M0 0 C1.26937991 3.53324217 0.7575638 5.33100318 -0.8125 8.6875 C-1.16957031 9.47511719 -1.52664062 10.26273437 -1.89453125 11.07421875 C-3 13 -3 13 -5 14 C-3.45730076 9.27934033 -1.92205381 4.58335908 0 0 Z " fill="#277ABE" transform="translate(256,344)"/>
<path d="M0 0 C0 3.66842255 -0.79029126 5.10451959 -3 8 C-5.6875 8.8125 -5.6875 8.8125 -8 9 C-7.04270084 7.87411986 -6.08412105 6.7493285 -5.125 5.625 C-4.59132813 4.99851562 -4.05765625 4.37203125 -3.5078125 3.7265625 C-2.38567993 2.44163349 -1.20628025 1.20628025 0 0 Z " fill="#2E80C6" transform="translate(799,467)"/>
<path d="M0 0 C0 2.67884659 -0.11409459 4.50335747 -1 7 C-1.99 7.66 -2.98 8.32 -4 9 C-4.8125 7.3125 -4.8125 7.3125 -5 5 C-2.5625 2.25 -2.5625 2.25 0 0 Z " fill="#1B76C2" transform="translate(704,438)"/>
<path d="M0 0 C0.66 0 1.32 0 2 0 C2.50615298 1.26839526 3.00469099 2.53983102 3.5 3.8125 C3.91765625 4.87404297 3.91765625 4.87404297 4.34375 5.95703125 C5 8 5 8 5 11 C4.34 11 3.68 11 3 11 C2.49632243 9.54293274 1.99717444 8.08429904 1.5 6.625 C1.2215625 5.81289062 0.943125 5.00078125 0.65625 4.1640625 C0 2 0 2 0 0 Z " fill="#2273C1" transform="translate(608,165)"/>
<path d="M0 0 C1.17539996 0.92652701 2.34010577 1.86663387 3.5 2.8125 C4.1496875 3.33457031 4.799375 3.85664062 5.46875 4.39453125 C7 6 7 6 7 9 C5.68 7.68 4.36 6.36 3 5 C2.01 5.495 2.01 5.495 1 6 C0.67 4.02 0.34 2.04 0 0 Z " fill="#1B75BE" transform="translate(687,654)"/>
<path d="M0 0 C2.3125 0.1875 2.3125 0.1875 5 1 C7.20970874 3.89548041 8 5.33157745 8 9 C6.66368764 7.6905332 5.33102075 6.37734515 4 5.0625 C3.2575 4.33160156 2.515 3.60070312 1.75 2.84765625 C0 1 0 1 0 0 Z " fill="#1D74BB" transform="translate(707,626)"/>
<path d="M0 0 C0.95465783 2.16967689 1.14401212 3.56328793 0.3984375 5.82421875 C-0.35870385 7.5684743 -1.17609198 9.28627131 -2 11 C-2.66 11 -3.32 11 -4 11 C-3.52269162 9.5410574 -3.04308958 8.08286504 -2.5625 6.625 C-2.29566406 5.81289062 -2.02882813 5.00078125 -1.75390625 4.1640625 C-1 2 -1 2 0 0 Z " fill="#CAEDFB" transform="translate(262,248)"/>
<path d="M0 0 C1.25541557 3.76624671 0.37061958 5.37188934 -1 9 C-1.66 9 -2.32 9 -3 9 C-3 7.02 -3 5.04 -3 3 C-2.01 2.67 -1.02 2.34 0 2 C0 1.34 0 0.68 0 0 Z " fill="#1E77BB" transform="translate(664,184)"/>
<path d="M0 0 C0.33 0.66 0.66 1.32 1 2 C-0.25 4.625 -0.25 4.625 -2 7 C-2.99 7 -3.98 7 -5 7 C-3.47793991 4.37098712 -2.15634036 2.15634036 0 0 Z " fill="#D7F1FB" transform="translate(762,460)"/>
<path d="M0 0 C2.93200474 2.85276137 5.64315404 5.65079784 8 9 C7.01 9.33 6.02 9.66 5 10 C2.96022723 6.75490696 1.33488128 3.59391114 0 0 Z " fill="#237BC4" transform="translate(598,423)"/>
<path d="M0 0 C0.66 0.33 1.32 0.66 2 1 C0.68 4.63 -0.64 8.26 -2 12 C-3.22268689 7.10925243 -2.20961767 4.41923534 0 0 Z " fill="#D1F0FB" transform="translate(676,247)"/>
<path d="M0 0 C2 1 2 1 4 3 C4.36933645 5.75372909 4.18336678 8.20365661 4 11 C1.55160412 7.32740617 0 4.45351799 0 0 Z " fill="#1971BE" transform="translate(579,246)"/>
<path d="M0 0 C0.95465783 2.16967689 1.14401212 3.56328793 0.3984375 5.82421875 C-0.35870385 7.5684743 -1.17609198 9.28627131 -2 11 C-2.66 11 -3.32 11 -4 11 C-3.52269162 9.5410574 -3.04308958 8.08286504 -2.5625 6.625 C-2.29566406 5.81289062 -2.02882813 5.00078125 -1.75390625 4.1640625 C-1 2 -1 2 0 0 Z " fill="#C5E9F9" transform="translate(276,216)"/>
<path d="M0 0 C1.17539996 0.92652701 2.34010577 1.86663387 3.5 2.8125 C4.1496875 3.33457031 4.799375 3.85664062 5.46875 4.39453125 C7 6 7 6 7 9 C3.99234114 6.15063897 1.72154788 3.76488042 0 0 Z " fill="#1B75C5" transform="translate(773,611)"/>
<path d="M0 0 C0.99 0.33 1.98 0.66 3 1 C1.35 2.98 -0.3 4.96 -2 7 C-2.66 6.01 -3.32 5.02 -4 4 C-2.68 2.68 -1.36 1.36 0 0 Z " fill="#D1EFFB" transform="translate(563,584)"/>
<path d="M0 0 C2.31 1.98 4.62 3.96 7 6 C6.34 6.66 5.68 7.32 5 8 C4.67 7.34 4.34 6.68 4 6 C3.01 5.67 2.02 5.34 1 5 C0.67 3.35 0.34 1.7 0 0 Z " fill="#D7F4FD" transform="translate(779,571)"/>
<path d="M0 0 C0 2 0 4 0 6 C-0.99 6 -1.98 6 -3 6 C-3 6.66 -3 7.32 -3 8 C-3.66 7.67 -4.32 7.34 -5 7 C-3.47793991 4.37098712 -2.15634036 2.15634036 0 0 Z " fill="#1173BF" transform="translate(756,513)"/>
<path d="M0 0 C0.66 0.99 1.32 1.98 2 3 C1.67 3.99 1.34 4.98 1 6 C0.34 6 -0.32 6 -1 6 C-1 6.99 -1 7.98 -1 9 C-1.66 9 -2.32 9 -3 9 C-2.01 6.03 -1.02 3.06 0 0 Z " fill="#D1F0FC" transform="translate(314,366)"/>
<path d="M0 0 C2.18975773 3.28463659 2.99806563 6.20696275 4 10 C3.01 10.495 3.01 10.495 2 11 C0.80712589 7.12315913 0 4.08378077 0 0 Z " fill="#2C7EC4" transform="translate(617,187)"/>
<path d="M0 0 C0.625 1.875 0.625 1.875 1 4 C0.34 4.66 -0.32 5.32 -1 6 C-1.99 6 -2.98 6 -4 6 C-2.84826645 3.53199953 -1.95216435 1.95216435 0 0 Z " fill="#247FC4" transform="translate(637,639)"/>
<path d="M0 0 C0.33 0.99 0.66 1.98 1 3 C-0.28965176 4.37562854 -1.62689293 5.70766393 -3 7 C-3.66 7 -4.32 7 -5 7 C-3.70700306 4.11562221 -2.34058637 2.12780579 0 0 Z " fill="#CCE9FB" transform="translate(705,521)"/>
<path d="M0 0 C2.475 0.495 2.475 0.495 5 1 C5 2.65 5 4.3 5 6 C3.2925002 4.71937515 1.62626404 3.38232443 0 2 C0 1.34 0 0.68 0 0 Z " fill="#1577C3" transform="translate(583,492)"/>
<path d="M0 0 C1.79093191 -0.08086147 3.58289628 -0.13912702 5.375 -0.1875 C6.87160156 -0.23970703 6.87160156 -0.23970703 8.3984375 -0.29296875 C9.25695312 -0.19628906 10.11546875 -0.09960938 11 0 C11.66 0.99 12.32 1.98 13 3 C12.01 3 11.02 3 10 3 C10 2.34 10 1.68 10 1 C6.7 1 3.4 1 0 1 C0 0.67 0 0.34 0 0 Z " fill="#1674BF" transform="translate(585,420)"/>
<path d="M0 0 C0.99 0 1.98 0 3 0 C2.01 2.97 1.02 5.94 0 9 C-0.33 9 -0.66 9 -1 9 C-0.67 6.03 -0.34 3.06 0 0 Z " fill="#1874BD" transform="translate(312,364)"/>
<path d="M0 0 C0.66 0 1.32 0 2 0 C4.29013653 3.4352048 4.17842973 4.985331 4 9 C1.3144406 6.3144406 0.93950026 3.62378672 0 0 Z " fill="#D7F5FD" transform="translate(479,306)"/>
<path d="M0 0 C2.6855594 2.6855594 3.06049974 5.37621328 4 9 C3.34 9 2.68 9 2 9 C2 8.34 2 7.68 2 7 C1.34 7 0.68 7 0 7 C0 4.69 0 2.38 0 0 Z " fill="#CBF4FD" transform="translate(574,236)"/>
<path d="M0 0 C0.99 0 1.98 0 3 0 C3.66 1.98 4.32 3.96 5 6 C3.68 5.67 2.36 5.34 1 5 C0.67 3.35 0.34 1.7 0 0 Z " fill="#1C78C2" transform="translate(415,168)"/>
</svg>
